<svg width="24" height="25" viewBox="0 0 24 25" fill="none" xmlns="http://www.w3.org/2000/svg">
<g id="book-open">
<path id="Vector" d="M2 3.27979H8C9.06087 3.27979 10.0783 3.70121 10.8284 4.45136C11.5786 5.2015 12 6.21892 12 7.27979V21.2798C12 20.4841 11.6839 19.7211 11.1213 19.1585C10.5587 18.5959 9.79565 18.2798 9 18.2798H2V3.27979Z" stroke="#A3ADB8" strokewidth="1.5" stroke-linecap="round" stroke-linejoin="round"/>
<path id="Vector_2" d="M22 3.27979H16C14.9391 3.27979 13.9217 3.70121 13.1716 4.45136C12.4214 5.2015 12 6.21892 12 7.27979V21.2798C12 20.4841 12.3161 19.7211 12.8787 19.1585C13.4413 18.5959 14.2044 18.2798 15 18.2798H22V3.27979Z" stroke="#A3ADB8" strokewidth="1.5" stroke-linecap="round" stroke-linejoin="round"/>
</g>
</svg>
