<svg width="24" height="25" viewBox="0 0 24 25" fill="none" xmlns="http://www.w3.org/2000/svg">
<g id="icon/campaign">
<path id="Vector" d="M21.2104 16.1699C20.5742 17.6743 19.5792 19.0001 18.3123 20.0312C17.0454 21.0622 15.5452 21.7673 13.9428 22.0846C12.3405 22.402 10.6848 22.322 9.12055 21.8517C7.55627 21.3813 6.13103 20.5349 4.96942 19.3865C3.80782 18.2381 2.94522 16.8226 2.45704 15.2638C1.96886 13.705 1.86996 12.0504 2.169 10.4445C2.46804 8.83864 3.1559 7.33049 4.17245 6.05189C5.189 4.77329 6.50329 3.76318 8.0004 3.10986" stroke="#A3ADB8" strokewidth="1.5" stroke-linecap="round" stroke-linejoin="round"/>
<path id="Vector_2" d="M22 12.2798C22 10.9666 21.7413 9.66621 21.2388 8.45295C20.7362 7.23969 19.9997 6.1373 19.0711 5.20872C18.1425 4.28013 17.0401 3.54354 15.8268 3.04099C14.6136 2.53844 13.3132 2.27979 12 2.27979V12.2798H22Z" stroke="#A3ADB8" strokewidth="1.5" stroke-linecap="round" stroke-linejoin="round"/>
</g>
</svg>
