<svg width="54" height="11" viewBox="0 0 54 11" fill="none" xmlns="http://www.w3.org/2000/svg">
<g id="Customer">
<path d="M4.31955 10.4998C6.36053 10.4998 7.89293 9.29851 8.11375 7.49982H7.58511C7.37767 9.0228 6.01925 10.014 4.31955 10.014C2.07114 10.014 0.612341 8.29413 0.612341 5.56984C0.612341 2.9112 2.05106 1.23724 4.31955 1.23724C5.9791 1.23724 7.37767 2.39917 7.58511 3.92214H8.11375C7.913 2.11689 6.28022 0.751465 4.31955 0.751465C1.72317 0.751465 0.0703125 2.62236 0.0703125 5.56984C0.0703125 8.58297 1.72986 10.4998 4.31955 10.4998Z" fill="#0065B1"/>
<path d="M14.8791 3.53483H14.3571V7.63111C14.3571 9.07531 13.3601 10.0075 12.0418 10.0075C10.7771 10.0075 9.94059 9.23286 9.94059 7.90026V3.53483H9.42533V7.97903C9.42533 9.50857 10.4358 10.467 11.9347 10.467C13.0857 10.467 14.0627 9.79741 14.3705 8.87838H14.3906V10.362H14.8791V3.53483Z" fill="#0065B1"/>
<path d="M16.2643 5.281C16.2643 6.15409 16.8598 6.69895 18.1647 7.00092L19.1685 7.23068C20.286 7.49326 20.7276 7.874 20.7276 8.5961C20.7276 9.43636 19.8979 10.0272 18.7067 10.0272C17.5424 10.0272 16.6791 9.38385 16.552 8.43855H16.0367C16.1438 9.62674 17.2346 10.467 18.6934 10.467C20.1923 10.467 21.2496 9.67925 21.2496 8.56328C21.2496 7.60486 20.7076 7.10595 19.3224 6.78429L18.3588 6.56109C17.2413 6.30507 16.7728 5.92433 16.7728 5.26131C16.7728 4.45387 17.5558 3.86963 18.6331 3.86963C19.744 3.86963 20.4934 4.48013 20.634 5.49107H21.1358C21.0087 4.22411 20.0451 3.4298 18.6398 3.4298C17.2546 3.4298 16.2643 4.20442 16.2643 5.281Z" fill="#0065B1"/>
<path d="M22.7954 1.74271V3.53483H21.7582V3.97466H22.7954V8.80617C22.7954 9.93527 23.2303 10.3751 24.2475 10.3751C24.3278 10.3751 24.7561 10.3685 24.8029 10.362V9.91558C24.7761 9.91558 24.3545 9.92214 24.3211 9.92214C23.6185 9.92214 23.3106 9.60048 23.3106 8.79304V3.97466H24.7092V3.53483H23.3106V1.74271H22.7954Z" fill="#0065B1"/>
<path d="M28.4499 10.467C30.2968 10.467 31.5548 9.1147 31.5548 6.9484C31.5548 4.7821 30.2968 3.4298 28.4499 3.4298C26.603 3.4298 25.3516 4.7821 25.3516 6.9484C25.3516 9.1147 26.603 10.467 28.4499 10.467ZM28.4499 10.0075C26.9041 10.0075 25.8736 8.84556 25.8736 6.9484C25.8736 5.05125 26.9041 3.88932 28.4499 3.88932C29.9957 3.88932 31.0329 5.05125 31.0329 6.9484C31.0329 8.83899 29.9957 10.0075 28.4499 10.0075Z" fill="#0065B1"/>
<path d="M32.7527 10.362H33.2746V6.28538C33.2746 4.83462 34.0843 3.88932 35.2487 3.88932C36.3126 3.88932 37.0688 4.6705 37.0688 5.85212V10.362H37.5841V6.1147C37.5841 4.80179 38.3804 3.88932 39.5514 3.88932C40.689 3.88932 41.3783 4.64424 41.3783 5.87181V10.362H41.9002V5.75365C41.9002 4.33571 41.0102 3.4298 39.6719 3.4298C38.5343 3.4298 37.7045 4.1716 37.4636 5.05125H37.4435C37.2361 4.14534 36.4532 3.4298 35.3557 3.4298C34.2583 3.4298 33.5155 4.11251 33.2545 5.01842H33.2411V3.53483H32.7527V10.362Z" fill="#0065B1"/>
<path d="M46.0892 3.88276C47.5547 3.88276 48.5384 4.99216 48.5451 6.60704H43.5798C43.6535 4.97903 44.6438 3.88276 46.0892 3.88276ZM48.4715 8.45168C48.264 9.34446 47.4343 10.014 46.1562 10.014C44.597 10.014 43.5732 8.91777 43.5732 7.06V7.03374H49.0804V6.7449C49.0804 4.7624 47.896 3.4298 46.0959 3.4298C44.2557 3.4298 43.0445 4.83462 43.0445 6.95496C43.0445 9.16065 44.2557 10.467 46.1495 10.467C47.7019 10.467 48.7592 9.60704 48.9934 8.45168H48.4715Z" fill="#0065B1"/>
<path d="M50.2716 10.362H50.7935V6.10814C50.7935 4.82805 51.4694 3.91558 52.5668 3.91558C52.8947 3.91558 53.1423 3.98122 53.2895 4.05343V3.5414C53.1624 3.48888 52.9148 3.4298 52.6404 3.4298C51.717 3.4298 51.0612 3.94184 50.7734 4.88057H50.7601V3.53483H50.2716V10.362Z" fill="#0065B1"/>
</g>
</svg>
