<svg width="24" height="25" viewBox="0 0 24 25" fill="none" xmlns="http://www.w3.org/2000/svg">
<g id="edit">
<path id="Vector" d="M11 4.27979H4C3.46957 4.27979 2.96086 4.4905 2.58579 4.86557C2.21071 5.24064 2 5.74935 2 6.27979V20.2798C2 20.8102 2.21071 21.3189 2.58579 21.694C2.96086 22.0691 3.46957 22.2798 4 22.2798H18C18.5304 22.2798 19.0391 22.0691 19.4142 21.694C19.7893 21.3189 20 20.8102 20 20.2798V13.2798" stroke="#A3ADB8" strokewidth="1.5" stroke-linecap="round" stroke-linejoin="round"/>
<path id="Vector_2" d="M18.5 2.78001C18.8978 2.38219 19.4374 2.15869 20 2.15869C20.5626 2.15869 21.1022 2.38219 21.5 2.78001C21.8978 3.17784 22.1213 3.7174 22.1213 4.28001C22.1213 4.84262 21.8978 5.38219 21.5 5.78001L12 15.28L8 16.28L9 12.28L18.5 2.78001Z" stroke="#A3ADB8" strokewidth="1.5" stroke-linecap="round" stroke-linejoin="round"/>
</g>
</svg>
