<svg width="37" height="11" viewBox="0 0 37 11" fill="none" xmlns="http://www.w3.org/2000/svg">
<g id="erified">
<path d="M3.81941 4.14989C4.82986 4.14989 5.51242 4.89169 5.54588 5.94858H2.02603C2.09964 4.90481 2.80896 4.14989 3.81941 4.14989ZM5.53918 8.00985C5.34512 8.61379 4.73618 9.02079 3.9131 9.02079C2.75543 9.02079 2.01934 8.22648 2.01934 7.02516V6.93983H6.99129V6.45405C6.99129 4.35996 5.77339 3.00766 3.81941 3.00766C1.83197 3.00766 0.560547 4.45186 0.560547 6.61816C0.560547 8.79759 1.8119 10.1696 3.87964 10.1696C5.49234 10.1696 6.71023 9.27024 6.91098 8.00985H5.53918Z" fill="#0065B1"/>
<path d="M8.11549 10.0383H9.5609V5.90263C9.5609 4.92451 10.1364 4.314 11.0665 4.314C11.3476 4.314 11.6019 4.34683 11.7156 4.39278V3.0733C11.6086 3.05361 11.4279 3.02079 11.2204 3.02079C10.3907 3.02079 9.76166 3.5 9.52745 4.30744H9.49399V3.13239H8.11549V10.0383Z" fill="#0065B1"/>
<path d="M12.6592 10.0383H14.1046V3.13239H12.6592V10.0383ZM13.3819 2.12144C13.8503 2.12144 14.225 1.76039 14.225 1.314C14.225 0.86105 13.8503 0.5 13.3819 0.5C12.9201 0.5 12.5454 0.86105 12.5454 1.314C12.5454 1.76039 12.9201 2.12144 13.3819 2.12144Z" fill="#0065B1"/>
<path d="M16.005 10.0383H17.4571V4.25492H18.8624V3.14551H17.4371V2.49562C17.4371 1.88512 17.7315 1.57659 18.3605 1.57659C18.5546 1.57659 18.7486 1.58972 18.8892 1.61597V0.565646C18.7018 0.532823 18.3739 0.5 18.0795 0.5C16.6474 0.5 16.005 1.1302 16.005 2.46937V3.14551H15.0347V4.25492H16.005V10.0383Z" fill="#0065B1"/>
<path d="M20.0468 10.0383H21.4922V3.13239H20.0468V10.0383ZM20.7695 2.12144C21.2379 2.12144 21.6127 1.76039 21.6127 1.314C21.6127 0.86105 21.2379 0.5 20.7695 0.5C20.3078 0.5 19.9331 0.86105 19.9331 1.314C19.9331 1.76039 20.3078 2.12144 20.7695 2.12144Z" fill="#0065B1"/>
<path d="M25.9155 4.14989C26.9259 4.14989 27.6085 4.89169 27.6419 5.94858H24.1221C24.1957 4.90481 24.905 4.14989 25.9155 4.14989ZM27.6352 8.00985C27.4412 8.61379 26.8322 9.02079 26.0091 9.02079C24.8515 9.02079 24.1154 8.22648 24.1154 7.02516V6.93983H29.0873V6.45405C29.0873 4.35996 27.8694 3.00766 25.9155 3.00766C23.928 3.00766 22.6566 4.45186 22.6566 6.61816C22.6566 8.79759 23.9079 10.1696 25.9757 10.1696C27.5884 10.1696 28.8063 9.27024 29.007 8.00985H27.6352Z" fill="#0065B1"/>
<path d="M32.8548 10.1565C33.8786 10.1565 34.6816 9.65098 35.0965 8.86324H35.1233V10.0383H36.5285V0.565646H35.0764V4.28118H35.0496C34.6548 3.51969 33.8518 3.02079 32.8414 3.02079C31.0748 3.02079 29.897 4.40591 29.897 6.58534C29.897 8.76477 31.0748 10.1565 32.8548 10.1565ZM33.2362 4.21554C34.347 4.21554 35.0898 5.15427 35.0898 6.58534C35.0898 8.02954 34.347 8.95514 33.2362 8.95514C32.0919 8.95514 31.3759 8.04267 31.3759 6.58534C31.3759 5.13457 32.0919 4.21554 33.2362 4.21554Z" fill="#0065B1"/>
</g>
</svg>
