<svg width="262" height="30" viewBox="0 0 162 24" fill="none" xmlns="http://www.w3.org/2000/svg">
<g id="logo">
<g id="logo_small">
<path id="Vector" d="M19.4274 12.488L15.2895 6.45312H11.742L15.5847 12.488H15.6133L8.72168 23.2137H12.5644L19.436 12.488H19.4274Z" fill="#173057"/>
<path id="Vector_2" d="M19.6853 12.4881L27.7346 0H24.1871L15.8426 12.4881H15.834L19.6767 18.5201H23.5194L19.6566 12.4881H19.6853Z" fill="#0065B1"/>
</g>
<g id="Group 2378">
<path id="Vector_3" d="M160.556 7.65972C159.656 6.98059 158.481 6.63672 157.063 6.63672C155.529 6.63672 154.317 7.06369 153.449 7.90902C152.558 7.06369 151.343 6.63672 149.827 6.63672C148.93 6.63672 148.162 6.79146 147.526 7.10094V6.78859H144.89V18.6004H147.526V10.7115C147.526 10.2072 147.712 9.83754 148.119 9.53952C148.575 9.19279 149.134 9.02372 149.827 9.02372C150.498 9.02372 151.056 9.20139 151.546 9.57391C151.942 9.86333 152.128 10.2273 152.128 10.7144V18.6033H154.764V10.7115C154.764 9.87766 155.037 9.02372 157.065 9.02372C157.848 9.02372 158.438 9.20139 158.816 9.55099C159.189 9.89485 159.364 10.2645 159.364 10.7144V18.6033H162V10.7115C161.997 9.43063 161.516 8.40763 160.556 7.65972Z" fill="#173057"/>
<path id="Vector_4" d="M9.39768 13.4566C9.1054 14.4854 8.25433 15.3422 7.14536 15.6889C5.61802 16.1646 4.0305 15.5685 3.3485 14.3392L12.2288 11.5682L12.1142 11.0725C12.0798 10.9263 12.0426 10.7802 11.9967 10.6341C10.9881 7.40172 7.53794 5.59355 4.30846 6.60223C1.07898 7.6109 -0.729184 11.0582 0.279491 14.2876C1.28817 17.5171 4.73543 19.3253 7.9649 18.3166C10.4436 17.5429 12.1715 15.282 12.269 12.6887L12.2747 12.5597L9.39768 13.4566ZM5.13087 9.2328C6.40604 8.83449 7.73853 9.17836 8.54088 10.0524L2.78972 11.8462C2.95305 10.6713 3.85284 9.63112 5.13087 9.2328Z" fill="#173057"/>
<path id="Vector_5" d="M111.3 13.3879C111.008 14.4166 110.157 15.2734 109.048 15.6201C107.52 16.0958 105.933 15.4998 105.251 14.2705L114.131 11.4995L114.017 11.0037C113.982 10.8576 113.945 10.7114 113.899 10.5653C112.89 7.33582 109.443 5.52765 106.214 6.53633C102.981 7.54214 101.173 10.9894 102.182 14.2189C103.19 17.4484 106.638 19.2565 109.867 18.2478C112.346 17.4741 114.074 15.2132 114.171 12.6199L114.177 12.4909L111.3 13.3879ZM107.03 9.16404C108.306 8.76573 109.638 9.10959 110.44 9.98359L104.689 11.7774C104.855 10.6025 105.755 9.56235 107.03 9.16404Z" fill="#173057"/>
<path id="Vector_6" d="M46.7561 13.4567C46.4639 14.4854 45.6128 15.3422 44.5038 15.689C42.9765 16.1647 41.389 15.5686 40.707 14.3393L49.5873 11.5683L49.4727 11.0726C49.4383 10.9264 49.401 10.7803 49.3552 10.6341C48.3465 7.40466 44.8993 5.5965 41.6698 6.60517C38.4403 7.61385 36.6321 11.0611 37.6408 14.2906C38.6495 17.5201 42.0968 19.3282 45.3262 18.3196C47.8049 17.5459 49.5329 15.2849 49.6303 12.6916L49.636 12.5627L46.7561 13.4567ZM42.4865 9.23289C43.7616 8.83457 45.0941 9.17844 45.8965 10.0524L40.1453 11.8463C40.3086 10.6714 41.2113 9.6312 42.4865 9.23289Z" fill="#173057"/>
<path id="Vector_7" d="M73.1243 13.4567C72.832 14.4854 71.981 15.3422 70.872 15.689C69.3446 16.1647 67.7571 15.5686 67.0751 14.3393L75.9555 11.5683L75.8409 11.0726C75.8065 10.9264 75.7692 10.7803 75.7234 10.6341C74.7147 7.40466 71.2674 5.5965 68.038 6.60517C64.8085 7.61385 63.0003 11.0611 64.009 14.2906C65.0177 17.5201 68.4649 19.3282 71.6944 18.3196C74.1731 17.5459 75.901 15.2849 75.9985 12.6916L76.0042 12.5627L73.1243 13.4567ZM68.8546 9.23289C70.1298 8.83457 71.4623 9.17844 72.2646 10.0524L66.5135 11.8463C66.6797 10.6714 67.5795 9.6312 68.8546 9.23289Z" fill="#173057"/>
<path id="Vector_8" d="M30.7004 6.55664C29.4252 6.55664 28.3019 6.88331 27.3448 7.53093V6.70565H24.6885V23.28H27.3448V17.6836C28.322 18.3455 29.4453 18.6808 30.7004 18.6808C32.394 18.6808 33.8497 18.0876 35.0217 16.9156C36.1765 15.7608 36.7639 14.3137 36.7639 12.6202C36.7639 10.9266 36.1708 9.47091 34.9987 8.2989C33.8411 7.14408 32.394 6.55664 30.7004 6.55664ZM30.7004 16.0502C29.7548 16.0502 28.9639 15.7178 28.2819 15.0387C27.5999 14.3567 27.2703 13.5658 27.2703 12.6202C27.2703 11.6573 27.6027 10.8607 28.2819 10.1787C28.9467 9.51389 29.7376 9.19008 30.7004 9.19008C31.646 9.19008 32.4369 9.52249 33.1189 10.2016C33.8009 10.8836 34.1305 11.6745 34.1305 12.6202C34.1305 13.583 33.7981 14.3796 33.1189 15.0616C32.4513 15.7264 31.6604 16.0502 30.7004 16.0502Z" fill="#173057"/>
<path id="Vector_9" d="M57.0342 6.78262C56.5328 6.64794 55.9281 6.58203 55.1888 6.58203C54.567 6.58203 53.9853 6.7425 53.4523 7.06344V6.70525H50.4922V18.5085H53.4523V10.995C53.4523 10.8488 53.4982 10.674 53.5899 10.4706C53.6901 10.2442 53.8306 10.0322 54.0025 9.8459C54.1744 9.65964 54.3807 9.50203 54.6186 9.37308C54.8192 9.26419 55.0255 9.21261 55.2519 9.21261C55.5957 9.21261 55.9253 9.25846 56.2319 9.35016C56.5528 9.44759 56.8594 9.5794 57.146 9.74274L57.7449 10.0866L59.5387 7.9575L58.6619 7.47322C58.0716 7.14655 57.5271 6.91444 57.0342 6.78262Z" fill="#173057"/>
<path id="Vector_10" d="M63.047 6.70557H60.0869V18.5088H63.047V6.70557Z" fill="#173057"/>
<path id="Vector_11" d="M86.7018 7.86293C85.7103 7.01473 84.3091 6.58203 82.5324 6.58203C81.3891 6.58203 80.4434 6.74537 79.6927 7.06918V6.70525H76.7812V18.5085H79.6927V11.5136C79.6927 10.7887 79.9133 10.2442 80.3747 9.8373C80.8303 9.42466 81.5581 9.21548 82.5296 9.21548C85.0054 9.21548 85.3378 10.4276 85.3378 11.6139V18.5113H88.2492V11.5136C88.2521 9.97198 87.7305 8.74552 86.7018 7.86293Z" fill="#173057"/>
<path id="Vector_12" d="M137.935 6.41895C134.522 6.41895 131.754 9.18707 131.754 12.5999C131.754 16.0128 134.522 18.7809 137.935 18.7809C141.348 18.7809 144.116 16.0128 144.116 12.5999C144.116 9.1842 141.348 6.41895 137.935 6.41895ZM137.935 16.0329C136.038 16.0329 134.502 14.4969 134.502 12.5999C134.502 10.7029 136.038 9.16701 137.935 9.16701C139.832 9.16701 141.368 10.7029 141.368 12.5999C141.368 14.4969 139.832 16.0329 137.935 16.0329Z" fill="#173057"/>
<path id="Vector_13" d="M116.434 15.5742C116.025 15.5742 115.675 15.7146 115.383 15.9983C115.09 16.2791 114.944 16.6259 114.944 17.0357C114.944 17.4626 115.085 17.8179 115.368 18.1016C115.649 18.3825 116.005 18.5257 116.434 18.5257C116.844 18.5257 117.188 18.3796 117.472 18.0873C117.753 17.795 117.896 17.4454 117.896 17.0357C117.896 16.6259 117.755 16.282 117.472 15.9983C117.188 15.7146 116.844 15.5742 116.434 15.5742Z" fill="#173057"/>
<path id="Vector_14" d="M128.026 13.6888C127.991 13.7977 127.954 13.9037 127.911 14.0069C127.888 14.0642 127.86 14.1157 127.831 14.1702C127.802 14.2275 127.774 14.2848 127.745 14.3393C127.719 14.3822 127.693 14.4252 127.668 14.4653C127.61 14.5542 127.553 14.643 127.487 14.7261C127.484 14.729 127.484 14.7318 127.481 14.7318C126.857 15.5485 125.877 16.0787 124.77 16.0787C124.444 16.0787 124.126 16.0299 123.828 15.944C123.825 15.944 123.819 15.9411 123.816 15.9411C123.773 15.9296 123.73 15.9153 123.687 15.901C123.212 15.7491 122.785 15.4969 122.444 15.1588C121.779 14.537 121.358 13.6515 121.358 12.6686C121.358 12.3964 121.392 12.1299 121.455 11.8778C121.555 11.3877 121.785 10.9235 122.117 10.5281C122.131 10.508 122.148 10.4908 122.163 10.4708C122.177 10.4564 122.191 10.4392 122.206 10.4249C122.83 9.71139 123.747 9.25577 124.77 9.25577C125.06 9.25577 125.338 9.29589 125.604 9.36179C125.644 9.37039 125.685 9.38185 125.725 9.39332C125.75 9.40191 125.776 9.40764 125.802 9.41624C126.278 9.55665 126.708 9.80309 127.054 10.1384C127.352 10.4077 127.602 10.7315 127.788 11.0926L130.413 10.273C129.198 7.40462 125.977 5.86009 122.942 6.80859C119.713 7.81726 117.905 11.2645 118.913 14.494C119.922 17.7235 123.369 19.5316 126.599 18.523C129.077 17.7493 130.805 15.4883 130.903 12.895L130.906 12.789L128.026 13.6888Z" fill="#173057"/>
<path id="Vector_15" d="M98.1182 13.7089C98.0953 13.7633 98.0666 13.8178 98.0409 13.8694C98.0323 13.8866 98.0237 13.9009 98.0151 13.9181L97.995 13.9238C97.9836 13.9467 97.9721 13.9697 97.9606 13.9926C97.9377 14.0356 97.9119 14.0757 97.8861 14.1158C97.8317 14.2046 97.7715 14.2906 97.7085 14.3737C97.7056 14.3766 97.7056 14.3794 97.7027 14.3794C97.0895 15.1847 96.1238 15.7062 95.032 15.7062C94.7082 15.7062 94.3987 15.6575 94.1036 15.5744C94.1007 15.5744 94.095 15.5715 94.0921 15.5715C94.0491 15.5601 94.0062 15.5457 93.966 15.5314C93.499 15.3824 93.0777 15.1331 92.7424 14.8007C92.0862 14.1875 91.6736 13.3163 91.6736 12.3478C91.6736 12.216 91.6822 12.087 91.6965 11.9609C91.7137 11.8434 91.7338 11.7259 91.7596 11.6113C91.857 11.127 92.0862 10.6714 92.41 10.2817C92.4244 10.2616 92.4416 10.2444 92.4559 10.2273C92.4702 10.2129 92.4846 10.1957 92.496 10.1814C93.1121 9.47648 94.0148 9.02945 95.0234 9.02945C95.3071 9.02945 95.5822 9.06957 95.8458 9.13548C95.886 9.14408 95.9261 9.15554 95.9633 9.167C95.9891 9.1756 96.0149 9.18133 96.0407 9.18993C96.5078 9.33034 96.9319 9.57104 97.2758 9.90345C97.5537 10.1528 97.783 10.4508 97.9635 10.7803L100.488 9.99228H100.568C100.425 9.66274 100.25 9.35326 100.058 9.06098L100.09 9.05238C98.6484 6.84304 95.8688 5.75699 93.2296 6.57941C91.026 7.26714 89.4986 9.10682 89.0917 11.2273C88.9026 12.1844 88.9399 13.2017 89.2522 14.196C90.2466 17.3797 93.6422 19.1592 96.8259 18.1677C99.0151 17.4857 100.608 15.6202 100.984 13.3994C100.984 13.3937 100.987 13.388 100.987 13.3822C101.007 13.2561 101.027 13.1329 101.038 13.004C101.041 12.9839 101.044 12.9667 101.047 12.9495H101.044C101.055 12.8406 101.064 12.7317 101.07 12.62L101.075 12.491L98.2443 13.3736C98.2071 13.4883 98.1669 13.6 98.1182 13.7089Z" fill="#173057"/>
</g>
</g>
</svg>
