<svg width="24" height="25" viewBox="0 0 24 25" fill="none" xmlns="http://www.w3.org/2000/svg">
<g id="icon/settings">
<path id="Vector" d="M11.9997 15.0073C13.506 15.0073 14.727 13.7862 14.727 12.28C14.727 10.7738 13.506 9.55273 11.9997 9.55273C10.4935 9.55273 9.27246 10.7738 9.27246 12.28C9.27246 13.7862 10.4935 15.0073 11.9997 15.0073Z" stroke="#A3ADB8" strokewidth="1.5" stroke-linecap="round" stroke-linejoin="round"/>
<path id="Vector_2" d="M18.7273 15.0071C18.6063 15.2813 18.5702 15.5854 18.6236 15.8803C18.6771 16.1752 18.8177 16.4473 19.0273 16.6616L19.0818 16.7161C19.2509 16.885 19.385 17.0855 19.4765 17.3063C19.568 17.527 19.6151 17.7636 19.6151 18.0025C19.6151 18.2415 19.568 18.478 19.4765 18.6988C19.385 18.9195 19.2509 19.12 19.0818 19.2889C18.913 19.4579 18.7124 19.592 18.4917 19.6835C18.271 19.775 18.0344 19.8221 17.7955 19.8221C17.5565 19.8221 17.3199 19.775 17.0992 19.6835C16.8785 19.592 16.678 19.4579 16.5091 19.2889L16.4545 19.2343C16.2403 19.0248 15.9682 18.8842 15.6733 18.8307C15.3784 18.7772 15.0742 18.8133 14.8 18.9343C14.5311 19.0496 14.3018 19.2409 14.1403 19.4848C13.9788 19.7287 13.8921 20.0145 13.8909 20.3071V20.4616C13.8909 20.9438 13.6994 21.4063 13.3584 21.7473C13.0174 22.0882 12.5549 22.2798 12.0727 22.2798C11.5905 22.2798 11.1281 22.0882 10.7871 21.7473C10.4461 21.4063 10.2545 20.9438 10.2545 20.4616V20.3798C10.2475 20.0789 10.1501 19.7871 9.97501 19.5422C9.79991 19.2974 9.55521 19.111 9.27273 19.0071C8.99853 18.886 8.69437 18.8499 8.39947 18.9034C8.10456 18.9569 7.83244 19.0975 7.61818 19.3071L7.56364 19.3616C7.39478 19.5307 7.19425 19.6648 6.97353 19.7563C6.7528 19.8478 6.51621 19.8949 6.27727 19.8949C6.03834 19.8949 5.80174 19.8478 5.58102 19.7563C5.36029 19.6648 5.15977 19.5307 4.99091 19.3616C4.82186 19.1927 4.68775 18.9922 4.59626 18.7715C4.50476 18.5508 4.45766 18.3142 4.45766 18.0752C4.45766 17.8363 4.50476 17.5997 4.59626 17.379C4.68775 17.1583 4.82186 16.9577 4.99091 16.7889L5.04545 16.7343C5.25503 16.5201 5.39562 16.248 5.4491 15.953C5.50257 15.6581 5.46647 15.354 5.34545 15.0798C5.23022 14.8109 5.03887 14.5816 4.79497 14.4201C4.55107 14.2585 4.26526 14.1719 3.97273 14.1707H3.81818C3.33597 14.1707 2.87351 13.9791 2.53253 13.6382C2.19156 13.2972 2 12.8347 2 12.3525C2 11.8703 2.19156 11.4078 2.53253 11.0669C2.87351 10.7259 3.33597 10.5343 3.81818 10.5343H3.9C4.2009 10.5273 4.49273 10.4299 4.73754 10.2548C4.98236 10.0797 5.16883 9.835 5.27273 9.55251C5.39374 9.27832 5.42984 8.97416 5.37637 8.67925C5.3229 8.38435 5.18231 8.11222 4.97273 7.89797L4.91818 7.84342C4.74913 7.67456 4.61503 7.47404 4.52353 7.25331C4.43203 7.03259 4.38493 6.796 4.38493 6.55706C4.38493 6.31812 4.43203 6.08153 4.52353 5.8608C4.61503 5.64008 4.74913 5.43955 4.91818 5.27069C5.08704 5.10165 5.28757 4.96754 5.50829 4.87604C5.72901 4.78454 5.96561 4.73745 6.20455 4.73745C6.44348 4.73745 6.68008 4.78454 6.9008 4.87604C7.12152 4.96754 7.32205 5.10165 7.49091 5.27069L7.54545 5.32524C7.75971 5.53482 8.03183 5.67541 8.32674 5.72888C8.62164 5.78235 8.9258 5.74625 9.2 5.62524H9.27273C9.54161 5.51 9.77092 5.31865 9.93245 5.07475C10.094 4.83085 10.1807 4.54505 10.1818 4.25251V4.09797C10.1818 3.61576 10.3734 3.15329 10.7144 2.81232C11.0553 2.47134 11.5178 2.27979 12 2.27979C12.4822 2.27979 12.9447 2.47134 13.2856 2.81232C13.6266 3.15329 13.8182 3.61576 13.8182 4.09797V4.17979C13.8193 4.47232 13.906 4.75813 14.0676 5.00203C14.2291 5.24593 14.4584 5.43727 14.7273 5.55251C15.0015 5.67353 15.3056 5.70962 15.6005 5.65615C15.8954 5.60268 16.1676 5.46209 16.3818 5.25251L16.4364 5.19797C16.6052 5.02892 16.8057 4.89481 17.0265 4.80331C17.2472 4.71181 17.4838 4.66472 17.7227 4.66472C17.9617 4.66472 18.1983 4.71181 18.419 4.80331C18.6397 4.89481 18.8402 5.02892 19.0091 5.19797C19.1781 5.36683 19.3122 5.56735 19.4037 5.78808C19.4952 6.0088 19.5423 6.24539 19.5423 6.48433C19.5423 6.72327 19.4952 6.95986 19.4037 7.18059C19.3122 7.40131 19.1781 7.60183 19.0091 7.77069L18.9545 7.82524C18.745 8.03949 18.6044 8.31162 18.5509 8.60652C18.4974 8.90143 18.5335 9.20559 18.6545 9.47979V9.55251C18.7698 9.82139 18.9611 10.0507 19.205 10.2122C19.4489 10.3738 19.7347 10.4604 20.0273 10.4616H20.1818C20.664 10.4616 21.1265 10.6532 21.4675 10.9941C21.8084 11.3351 22 11.7976 22 12.2798C22 12.762 21.8084 13.2245 21.4675 13.5654C21.1265 13.9064 20.664 14.098 20.1818 14.098H20.1C19.8075 14.0991 19.5217 14.1858 19.2778 14.3473C19.0339 14.5089 18.8425 14.7382 18.7273 15.0071V15.0071Z" stroke="#A3ADB8" strokewidth="1.5" stroke-linecap="round" stroke-linejoin="round"/>
</g>
</svg>
