<svg width="16" height="17" viewBox="0 0 16 17" fill="none" xmlns="http://www.w3.org/2000/svg">
<g id="more-vertical">
<path id="Vector" d="M7.99967 8.94661C8.36786 8.94661 8.66634 8.64814 8.66634 8.27995C8.66634 7.91176 8.36786 7.61328 7.99967 7.61328C7.63148 7.61328 7.33301 7.91176 7.33301 8.27995C7.33301 8.64814 7.63148 8.94661 7.99967 8.94661Z" stroke="#637487" strokewidth="1.5" stroke-linecap="round" stroke-linejoin="round"/>
<path id="Vector_2" d="M7.99967 4.27962C8.36786 4.27962 8.66634 3.98115 8.66634 3.61296C8.66634 3.24477 8.36786 2.94629 7.99967 2.94629C7.63148 2.94629 7.33301 3.24477 7.33301 3.61296C7.33301 3.98115 7.63148 4.27962 7.99967 4.27962Z" stroke="#637487" strokewidth="1.5" stroke-linecap="round" stroke-linejoin="round"/>
<path id="Vector_3" d="M7.99967 13.6131C8.36786 13.6131 8.66634 13.3146 8.66634 12.9465C8.66634 12.5783 8.36786 12.2798 7.99967 12.2798C7.63148 12.2798 7.33301 12.5783 7.33301 12.9465C7.33301 13.3146 7.63148 13.6131 7.99967 13.6131Z" stroke="#637487" strokewidth="1.5" stroke-linecap="round" stroke-linejoin="round"/>
</g>
</svg>
