<svg width="24" height="25" viewBox="0 0 24 25" fill="none" xmlns="http://www.w3.org/2000/svg">
<g id="user-check">
<path id="Vector" d="M16 21.2798V19.2798C16 18.2189 15.5786 17.2015 14.8284 16.4514C14.0783 15.7012 13.0609 15.2798 12 15.2798H5C3.93913 15.2798 2.92172 15.7012 2.17157 16.4514C1.42143 17.2015 1 18.2189 1 19.2798V21.2798" stroke="#A3ADB8" strokewidth="1.5" stroke-linecap="round" stroke-linejoin="round"/>
<path id="Vector_2" d="M8.5 11.2798C10.7091 11.2798 12.5 9.48892 12.5 7.27979C12.5 5.07065 10.7091 3.27979 8.5 3.27979C6.29086 3.27979 4.5 5.07065 4.5 7.27979C4.5 9.48892 6.29086 11.2798 8.5 11.2798Z" stroke="#A3ADB8" strokewidth="1.5" stroke-linecap="round" stroke-linejoin="round"/>
<path id="Vector_3" d="M18.1641 8.02962L20.2474 5.94629L22.3307 8.02962" stroke="#A3ADB8" strokewidth="1.3" stroke-linecap="round" stroke-linejoin="round"/>
<path id="Vector_4" d="M15.6641 12.613H18.5807C19.0228 12.613 19.4467 12.4374 19.7592 12.1248C20.0718 11.8122 20.2474 11.3883 20.2474 10.9463V5.94629" stroke="#A3ADB8" strokewidth="1.3" stroke-linecap="round" stroke-linejoin="round"/>
</g>
</svg>
